# AST/ASF file generated using VICON BodyLanguage
# -----------------------------------------------
:version 1.10
:name VICON
:units
  mass 1.0
  length 0.45
  angle deg
:documentation
   .ast/.asf automatically generated from VICON data using
   VICON BodyBuilder and BodyLanguage model FoxedUp or BRILLIANT.MOD
:root
   order TX TY TZ RX RY RZ
   axis XYZ
   position 0 0 0  
   orientation 0 0 0 
:bonedata
  begin
     id 1 
     name lhipjoint
     direction 0.682418 -0.694059 0.22932 
     length 2.25561 
     axis 0 0 0  XYZ
  end
  begin
     id 2 
     name lfemur
     direction 0.34202 -0.939693 0  
     length 6.96448  
     axis 0 0 20  XYZ
    dof rx ry rz
    limits (-160.0 20.0)
           (-70.0 70.0)
           (-60.0 70.0)
  end
  begin
     id 3 
     name ltibia
     direction 0.34202 -0.939693 0   
     length 6.88553   
     axis 0 0 20   XYZ
    dof rx
    limits (-10.0 170.0)
  end
  begin
     id 4 
     name lfoot
     direction 0.0723587 -0.198804 0.977364   
     length 1.88518   
     axis -90 7.62852e-016 20   XYZ
    dof rx rz
    limits (-45.0 90.0)
           (-70.0 20.0)
  end
  begin
     id 5 
     name ltoes
     direction 1.53558e-011 -4.21962e-011 1   
     length 0.952124   
     axis -90 7.62852e-016 20   XYZ
    dof rx
    limits (-90.0 20.0)
  end
  begin
     id 6 
     name rhipjoint
     direction -0.657603 -0.71533 0.236348   
     length 2.18854  
     axis 0 0 0  XYZ 
  end
  begin
     id 7 
     name rfemur
     direction -0.34202 -0.939693 0   
     length 6.86686   
     axis 0 0 -20   XYZ
    dof rx ry rz
    limits (-160.0 20.0)
           (-70.0 70.0)
           (-70.0 60.0)
  end
  begin
     id 8 
     name rtibia
     direction -0.34202 -0.939693 0   
     length 6.59503   
     axis 0 0 -20   XYZ
    dof rx
    limits (-10.0 170.0)
 end
 begin
     id 9 
     name rfoot
     direction -0.101977 -0.280179 0.954516   
     length 1.93723  
     axis -90 -7.62852e-016 -20   XYZ
    dof rx rz
    limits (-45.0 90.0)
           (-20.0 70.0)
  end
  begin
     id 10 
     name rtoes
     direction -1.53564e-011 -4.21897e-011 1   
     length 0.970315   
     axis -90 -7.62852e-016 -20   XYZ
    dof rx
    limits (-90.0 20.0)
  end
  begin
     id 11 
     name lowerback
     direction -0.0339559 0.999421 -0.00235966   
     length 1.88543   
     axis 0 0 0   XYZ
    dof rx ry rz
    limits (-20.0 45.0)
           (-30.0 30.0)
           (-30.0 30.0)
  end
  begin
     id 12 
     name upperback
     direction 0.00401003 0.999739 0.0224689   
     length 1.8856   
     axis 0 0 0   XYZ
    dof rx ry rz
    limits (-20.0 45.0)
           (-30.0 30.0)
           (-30.0 30.0)
  end
  begin
     id 13 
     name thorax
     direction 0.0198619 0.999546 0.0226536   
     length 1.88352   
     axis 0 0 0   XYZ
    dof rx ry rz
    limits (-20.0 45.0)
           (-30.0 30.0)
           (-30.0 30.0)
  end
  begin
     id 14 
     name lowerneck
     direction -0.0461848 0.998632 0.0245198   
     length 1.34895   
     axis 0 0 0   XYZ
    dof rx ry rz
    limits (-20.0 45.0)
           (-30.0 30.0)
           (-30.0 30.0)
  end
  begin
     id 15 
     name upperneck
     direction -0.0180627 0.994724 -0.100984   
     length 1.35214   
     axis 0 0 0   XYZ
    dof rx ry rz
    limits (-20.0 45.0)
           (-30.0 30.0)
           (-30.0 30.0)
  end
  begin
     id 16
     name head
     direction -0.00374772 0.999293 -0.037403  
     length 1.3568  
     axis 0 0 0   XYZ
    dof rx ry rz
    limits (-20.0 45.0)
           (-30.0 30.0)
           (-30.0 30.0)
  end
  begin
     id 17 
     name lclavicle
     direction 0.971773 0.191119 0.138311  
     length 2.84954  
     axis 0 0 0   XYZ
    dof ry rz
    limits (-20.0 10.0)
           (0.0 20.0)
  end
  begin
     id 18 
     name lhumerus
     direction 1 -4.4897e-011 -2.43761e-027   
     length 4.40919   
     axis 180 -30 -90   XYZ
    dof rx ry rz
    limits (-60.0 90.0)
           (-90.0 90.0)
           (-90.0 90.0)
  end
  begin
     id 19
     name lradius
     direction 1 -4.4896e-011 -9.1621e-027   
     length 3.03857   
     axis 180 -30 -90   XYZ
    dof rx
    limits (-10.0 170.0)
  end
  begin
     id 20
     name lwrist
     direction 1 -4.4896e-011 -1.41363e-026   
     length 1.51928   
     axis 1.07133e-014 90 90   XYZ
    dof ry
    limits (-180.0 0.0)
 end
  begin
     id 21 
     name lhand
     direction 1 -4.48978e-011 -2.82725e-026   
     length 0.523208   
     axis 1.80403e-014 90 90   XYZ
    dof rx rz
    limits (-90.0 90.0)
           (-45.0 45.0)
  end
  begin
     id 22 
     name lfingers
     direction 1 -4.48977e-011 -5.6545e-026   
     length 0.421824   
     axis 3.60806e-014 90 90   XYZ
    dof rx
    limits (0.0 90.0)
  end
  begin
     id 23
     name lthumb
     direction 0.707107 -6.34962e-011 0.707107   
     length 0.605657   
     axis -90 45 2.85299e-015   XYZ
    dof rx rz
    limits (-45.0 45.0)
           (-45.0 45.0)
  end
  begin
     id 24 
     name rclavicle
     direction -0.957247 0.24311 0.156766   
     length 3.12406  
     axis 0 0 0   XYZ 
    dof ry rz
    limits (-10.0 20.0)
           (-20.0 0.0)
  end
  begin
     id 25 
     name rhumerus
     direction -1 -4.48964e-011 -1.70632e-027  
     length 4.61969   
     axis 180 30 90   XYZ
    dof rx ry rz
    limits (-90.0 60.0)
           (-90.0 90.0)
           (-90.0 90.0)
  end
  begin
     id 26 
     name rradius
     direction -1 -4.48966e-011 -6.60395e-027   
     length 3.09382   
     axis 180 30 90   XYZ
    dof rx
    limits (-10.0 170.0)
  end
  begin
     id 27 
     name rwrist
     direction -1 -4.48963e-011 -1.41363e-026   
     length 1.54691   
     axis 1.07133e-014 -90 -90   XYZ
    dof ry
    limits (-180.0 0.0)
  end
  begin
     id 28
     name rhand
     direction -1 -4.49013e-011 -2.82725e-026   
     length 0.500896   
     axis 1.80403e-014 -90 -90   XYZ
    dof rx rz
    limits (-90.0 90.0)
           (-45.0 45.0)
  end
  begin
     id 29
     name rfingers
     direction -1 -4.48902e-011 -5.6545e-026   
     length 0.403835   
     axis 3.60806e-014 -90 -90   XYZ
    dof rx
    limits (0.0 90.0)
  end
  begin
     id 30
     name rthumb
     direction -0.707107 -6.34953e-011 0.707107   
     length 0.579829   
     axis -90 -45 -2.85299e-015   XYZ
    dof rx rz
    limits (-45.0 45.0)
           (-45.0 45.0)
  end
:hierarchy
  begin
    root lhipjoint rhipjoint lowerback
    lhipjoint lfemur
    lfemur ltibia
    ltibia lfoot
    lfoot ltoes
    rhipjoint rfemur
    rfemur rtibia
    rtibia rfoot
    rfoot rtoes
    lowerback upperback
    upperback thorax
    thorax lowerneck lclavicle rclavicle
    lowerneck upperneck
    upperneck head
    lclavicle lhumerus
    lhumerus lradius
    lradius lwrist
    lwrist lhand lthumb
    lhand lfingers
    rclavicle rhumerus
    rhumerus rradius
    rradius rwrist
    rwrist rhand rthumb
    rhand rfingers
  end

#!OML:ASF E:\madness\Project 1\Capture day 1\Session 1\Female1.ASF
:FULLY-SPECIFIED
:DEGREES
359
root 19.2815 16.3243 5.40487 176.829 -69.5388 -165.141
lowerback 16.4235 -0.971951 2.39542
upperback 3.05295 -0.867972 5.4856
thorax -5.88749 -0.581272 4.70243
lowerneck -8.46802 -0.333456 0.167608
upperneck 27.1772 1.05941 -11.0687
head 10.0866 -1.16613 -3.9271
rclavicle 3.81667e-014 -7.15625e-015
rhumerus -39.3451 -15.3711 -28.4666
rradius 112.041
rwrist -10.2961
rhand -5.34509 -37.7563
rfingers 7.12502
rthumb 20.4618 -66.6981
lclavicle 3.81667e-014 -7.15625e-015
lhumerus -43.0751 -22.8535 75.0352
lradius 127.998
lwrist -5.30309
lhand -38.4047 -12.5005
lfingers 7.12502
lthumb -11.4296 17.1679
rfemur -63.8408 22.1644 -8.21187
rtibia 69.0788
rfoot 28.9233 4.28439
rtoes 2.52785
lfemur -23.163 -3.66494 -19.6938
ltibia 29.5015
lfoot -8.79781 18.4464
ltoes 15.1267
360
root 19.291 16.32 5.38109 176.215 -69.7337 -164.407
lowerback 16.4505 -1.08655 2.22647
upperback 3.1029 -1.05029 5.55208
thorax -5.83302 -0.669702 4.90946
lowerneck -8.40055 -0.217905 -0.246245
upperneck 26.8194 1.14124 -10.3692
head 9.94576 -1.06596 -3.57326
rclavicle -5.52621e-014 -5.40694e-014
rhumerus -39.6283 -15.4003 -29.0684
rradius 111.147
rwrist -9.82178
rhand -6.21481 -38.31
rfingers 7.12502
rthumb 19.6259 -67.3393
lclavicle -5.52621e-014 -5.40694e-014
lhumerus -43.5648 -23.4005 76.5333
lradius 126.557
lwrist -4.69476
lhand -38.7881 -12.6028
lfingers 7.12502
lthumb -11.7993 17.0448
rfemur -63.1217 22.4879 -8.36483
rtibia 67.1382
rfoot 29.3461 4.39388
rtoes 4.81583
lfemur -23.4554 -3.78113 -19.3245
ltibia 29.8625
lfoot -8.98993 18.3755
ltoes 14.9513
361
root 19.2875 16.3173 5.36133 175.708 -70.0924 -163.786
lowerback 16.4363 -1.23953 2.24976
upperback 3.03238 -1.23932 5.55914
thorax -5.88842 -0.7595 4.94578
lowerneck -8.10416 -0.0567347 -0.257247
upperneck 26.7979 1.37629 -10.5225
head 9.89632 -0.975147 -3.59798
rclavicle -4.37326e-014 -3.73715e-014
rhumerus -40.5096 -13.8308 -28.9694
rradius 111.286
rwrist -10.7135
rhand -7.10755 -39.4465
rfingers 7.12502
rthumb 18.7674 -68.5612
lclavicle -4.37326e-014 -3.73715e-014
lhumerus -43.7715 -23.7429 77.5252
lradius 124.991
lwrist -5.1481
lhand -38.8707 -11.5586
lfingers 7.12502
lthumb -11.879 18.0845
rfemur -62.2255 22.6043 -8.50433
rtibia 65.2708
rfoot 29.4618 4.50339
rtoes 5.91454
lfemur -23.7263 -4.14308 -19.0399
ltibia 30.1676
lfoot -8.98341 18.4684
ltoes 14.6451
362
root 19.279 16.3094 5.34154 175.225 -70.3968 -163.234
lowerback 16.508 -1.3005 2.45338
upperback 2.90183 -1.26758 5.41811
thorax -6.07293 -0.769987 4.69019
lowerneck -8.10164 -0.097043 -0.175992
upperneck 26.7638 1.23167 -10.1409
head 9.87004 -0.982603 -3.48684
rclavicle -4.77083e-015 -4.77083e-014
rhumerus -41.579 -14.9281 -29.3133
rradius 109.984
rwrist -10.5491
rhand -6.60204 -38.7031
rfingers 7.12502
rthumb 19.2535 -67.77
lclavicle -4.77083e-015 -4.77083e-014
lhumerus -44.2494 -25.1255 78.9079
lradius 123.202
lwrist -4.24995
lhand -39.8481 -11.5905
lfingers 7.12502
lthumb -12.8213 17.9958
rfemur -61.3037 22.7655 -8.65828
rtibia 63.5352
rfoot 29.3101 4.40785
rtoes 6.07755
lfemur -23.9098 -4.40791 -18.8189
ltibia 30.4285
lfoot -8.95848 18.4971
ltoes 14.78
363
root 19.2555 16.3031 5.31971 174.902 -70.5632 -163.075
lowerback 16.4836 -1.28057 2.57401
upperback 2.93213 -1.22814 5.2166
thorax -6.03641 -0.751323 4.3915
lowerneck -7.80786 -0.1734 -0.217772
upperneck 26.6339 1.03183 -9.76222
head 9.75034 -1.02138 -3.35355
rclavicle 4.17448e-015 3.18055e-015
rhumerus -42.6083 -15.4929 -29.0925
rradius 109.146
rwrist -10.6863
rhand -5.79793 -38.5623
rfingers 7.12502
rthumb 20.0266 -67.5503
lclavicle 4.17448e-015 3.18055e-015
lhumerus -44.5098 -26.1274 79.7888
lradius 121.532
lwrist -4.4934
lhand -40.4904 -11.0528
lfingers 7.12502
lthumb -13.4405 18.4936
rfemur -60.1867 23.1433 -8.86334
rtibia 61.9561
rfoot 29.1606 4.26809
rtoes 7.3572
lfemur -23.7712 -4.67181 -18.8025
ltibia 30.7645
lfoot -9.12422 18.7722
ltoes 14.519
364
root 19.2552 16.2909 5.29305 174.805 -71.0455 -162.801
lowerback 16.2439 -1.30006 2.59845
upperback 2.87411 -1.2541 5.09058
thorax -5.97022 -0.759444 4.23758
lowerneck -7.60992 -0.277061 -0.410628
upperneck 26.5319 0.80749 -9.29358
head 9.66033 -1.07925 -3.16761
rclavicle 3.33958e-014 2.3059e-014
rhumerus -43.758 -16.0692 -28.5356
rradius 108.337
rwrist -10.6588
rhand -4.12645 -37.6661
rfingers 7.12502
rthumb 21.6325 -66.4777
lclavicle 3.33958e-014 2.3059e-014
lhumerus -44.7535 -27.0466 80.5516
lradius 119.895
lwrist -4.76764
lhand -40.6179 -10.7614
lfingers 7.12502
lthumb -13.5633 18.7768
rfemur -59.3768 23.1678 -9.08667
rtibia 60.5767
rfoot 29.0548 4.07811
rtoes 8.67233
lfemur -24.134 -4.91292 -18.7111
ltibia 31.1061
lfoot -9.30695 18.7832
ltoes 13.545
